<svg width="275" height="70" viewBox="0 0 275 70" fill="none" xmlns="http://www.w3.org/2000/svg">
<path d="M75.5349 14.9147C75.2479 14.8954 74.9799 14.8954 74.6929 14.8954C70.8654 14.8954 67.5356 16.1864 65.3157 17.7086L65.1817 17.6316V15.6854H56.436V53.8759H63.8612L65.1817 53.8952V25.4354C67.1911 23.9132 69.7938 22.7956 72.8366 22.7956C73.5064 22.7956 74.1762 22.8341 74.7886 22.969C79.0944 23.971 80.6637 27.5935 80.6445 31.3894V53.8952H89.3519V29.8094C89.3519 24.9151 87.9549 20.9843 84.9695 18.4987C82.3286 16.302 79.0562 15.0688 75.5349 14.9147Z" fill="#111111"/>
<path d="M41.2028 15.7009V53.8914H49.9294V15.7009H41.2028Z" fill="#111111"/>
<path d="M112.391 14.8737C102.497 14.8737 93.8665 22.7931 93.8665 34.8939C93.8665 36.2427 93.9814 37.5337 94.1919 38.7669C94.2684 39.2293 94.3641 39.6725 94.4598 40.1157C94.4981 40.2698 94.5363 40.4047 94.5746 40.5589C94.6129 40.6937 94.6512 40.8479 94.6894 40.9828C94.7851 41.3489 94.9191 41.7342 95.0339 42.1003C97.7131 49.9427 104.66 54.7406 112.353 54.7406C112.621 54.7406 112.87 54.7406 113.119 54.7213C119.108 54.4708 124.563 51.3493 127.357 45.4916C127.739 44.7016 128.065 43.8345 128.352 42.9482H120.352C118.4 46.3395 114.458 47.6305 110.784 46.9753C106.535 46.2238 103.952 42.9674 103.167 38.8247C103.072 38.343 102.995 37.842 102.957 37.341H129.825C129.978 36.339 130.036 34.7783 130.036 33.5451C130.036 21.2902 121.386 14.8352 112.391 14.8352M102.957 30.8474C104.067 25.1054 108.2 22.4656 112.334 22.4656C116.468 22.4656 121.06 25.1054 121.73 30.8474H102.957Z" fill="#111111"/>
<path d="M16.6876 15.7009C13.2046 15.7009 10.3149 15.7009 7.61659 15.7009H0V70H8.93706V51.9453L9.09016 51.8682C11.3866 53.4289 14.7739 54.7392 18.697 54.7392C28.1508 54.7392 36.1118 47.1281 36.1118 35.4127C36.1118 23.6974 27.9211 15.7202 16.6876 15.7202M16.7642 46.6656C13.6639 46.6656 11.0039 45.5095 8.93706 43.9488V23.5432H16.4006C23.1177 23.5432 27.1174 28.1677 27.1174 34.931C27.1174 41.6943 23.2134 46.6656 16.7833 46.6656" fill="#111111"/>
<path d="M223.77 14.8785C219.942 14.8785 216.632 16.1695 214.393 17.6918L214.239 17.6147V0.0223857H205.513V53.859H212.938C215.579 53.859 218.411 53.859 221.818 53.859C232.783 53.859 240.802 45.4386 240.802 33.7618C240.802 22.085 233.013 14.8593 223.77 14.8593M221.531 46.2286H214.239V25.4378C216.268 23.9155 218.852 22.7787 221.894 22.7787C228.171 22.7787 231.999 27.7115 231.999 34.2435C231.999 40.7756 228.095 46.2286 221.531 46.2286Z" fill="#111111"/>
<path d="M263.365 31.0051C258.102 29.849 253.624 29.9261 253.624 26.3421C253.624 23.7023 256.073 22.5462 259.824 22.5462C263.575 22.5462 268.627 23.7794 272.952 26.4192V17.8832C269.201 15.7829 264.073 14.858 259.824 14.858C251.308 14.858 244.878 19.0393 244.821 27.0358C244.821 33.934 249.433 36.4967 256.226 38.0575C261.642 39.2906 266.178 39.1365 266.178 42.9517C266.178 45.8227 263.652 47.0559 259.69 47.0559C255.729 47.0559 250.37 45.7456 245.912 42.7975V51.5648C249.873 53.7421 255.155 54.7441 259.556 54.7441C267.938 54.7441 275 50.794 275 42.1809C275 34.8781 270.158 32.5659 263.384 31.0051" fill="#111111"/>
<path d="M190.357 17.6144L190.204 17.7107C184.673 14.0111 178.779 15.0324 178.779 15.0324C168.445 16.4775 163.335 25.977 162.799 32.8559C162.34 38.7328 163.813 47.8854 173.439 53.0109C179.965 56.4793 186.816 54.1092 190.204 51.9319C190.261 51.9704 190.299 51.9897 190.357 52.0089V53.9551H199.102V15.6682H190.357V17.6144ZM190.357 44.1859C187.199 46.3439 184.309 47.0569 181.86 46.7871C173.975 45.9393 172.904 38.8484 172.693 37.095C172.253 33.5303 172.616 26.9404 177.745 24.0886C184.214 20.5047 190.357 25.4375 190.357 25.4375V44.1859Z" fill="#111111"/>
<path d="M161.21 46.2448V53.8945H153.996C152.292 53.8945 146.685 53.2586 146.666 45.1465V0H155.373V46.2448H161.21Z" fill="#111111"/>
<path d="M41.164 6.66892L47.3836 0.406605H56.2058V9.27019L49.9863 15.5325V6.66892H41.164Z" fill="#111111"/>
</svg>
